<?xml version="1.0" encoding="utf-8"?>
<svg viewBox="530.098 232.898 33 33" xmlns="http://www.w3.org/2000/svg">
  <path d="M 546.598 244.898 C 549.073 244.898 551.098 246.923 551.098 249.398 C 551.098 251.873 549.073 253.898 546.598 253.898 C 544.123 253.898 542.098 251.873 542.098 249.398 C 542.098 246.923 544.123 244.898 546.598 244.898 Z M 546.598 241.898 C 542.458 241.898 539.098 245.258 539.098 249.398 C 539.098 253.538 542.458 256.898 546.598 256.898 C 550.738 256.898 554.098 253.538 554.098 249.398 C 554.098 245.258 550.738 241.898 546.598 241.898 Z M 531.598 250.898 L 534.598 250.898 C 535.423 250.898 536.098 250.223 536.098 249.398 C 536.098 248.573 535.423 247.898 534.598 247.898 L 531.598 247.898 C 530.773 247.898 530.098 248.573 530.098 249.398 C 530.098 250.223 530.773 250.898 531.598 250.898 Z M 558.598 250.898 L 561.598 250.898 C 562.423 250.898 563.098 250.223 563.098 249.398 C 563.098 248.573 562.423 247.898 561.598 247.898 L 558.598 247.898 C 557.773 247.898 557.098 248.573 557.098 249.398 C 557.098 250.223 557.773 250.898 558.598 250.898 Z M 545.098 234.398 L 545.098 237.398 C 545.098 238.223 545.773 238.898 546.598 238.898 C 547.423 238.898 548.098 238.223 548.098 237.398 L 548.098 234.398 C 548.098 233.573 547.423 232.898 546.598 232.898 C 545.773 232.898 545.098 233.573 545.098 234.398 Z M 545.098 261.398 L 545.098 264.398 C 545.098 265.223 545.773 265.898 546.598 265.898 C 547.423 265.898 548.098 265.223 548.098 264.398 L 548.098 261.398 C 548.098 260.573 547.423 259.898 546.598 259.898 C 545.773 259.898 545.098 260.573 545.098 261.398 Z M 537.583 238.268 C 537.444 238.129 537.279 238.019 537.098 237.943 C 536.916 237.868 536.722 237.829 536.525 237.829 C 536.329 237.829 536.135 237.868 535.953 237.943 C 535.772 238.019 535.607 238.129 535.468 238.268 C 535.329 238.407 535.219 238.572 535.143 238.753 C 535.068 238.935 535.029 239.129 535.029 239.326 C 535.029 239.522 535.068 239.717 535.143 239.898 C 535.219 240.08 535.329 240.244 535.468 240.383 L 537.058 241.973 C 537.643 242.558 538.603 242.558 539.173 241.973 C 539.743 241.388 539.758 240.428 539.173 239.858 L 537.583 238.268 Z M 556.138 256.823 C 555.999 256.684 555.834 256.574 555.653 256.499 C 555.471 256.423 555.277 256.384 555.08 256.384 C 554.884 256.384 554.689 256.423 554.508 256.499 C 554.327 256.574 554.162 256.684 554.023 256.823 C 553.884 256.962 553.774 257.127 553.698 257.308 C 553.623 257.49 553.584 257.684 553.584 257.881 C 553.584 258.077 553.623 258.272 553.698 258.453 C 553.774 258.635 553.884 258.799 554.023 258.938 L 555.613 260.528 C 556.198 261.113 557.158 261.113 557.728 260.528 C 557.867 260.389 557.977 260.225 558.053 260.043 C 558.128 259.862 558.167 259.667 558.167 259.471 C 558.167 259.274 558.128 259.08 558.053 258.898 C 557.977 258.717 557.867 258.552 557.728 258.413 L 556.138 256.823 Z M 557.728 240.383 C 557.867 240.244 557.977 240.08 558.053 239.898 C 558.128 239.717 558.167 239.522 558.167 239.326 C 558.167 239.129 558.128 238.935 558.053 238.753 C 557.977 238.572 557.867 238.407 557.728 238.268 C 557.589 238.129 557.424 238.019 557.243 237.943 C 557.061 237.868 556.867 237.829 556.67 237.829 C 556.474 237.829 556.279 237.868 556.098 237.943 C 555.917 238.019 555.752 238.129 555.613 238.268 L 554.023 239.858 C 553.438 240.443 553.438 241.403 554.023 241.973 C 554.608 242.543 555.568 242.558 556.138 241.973 L 557.728 240.383 Z M 539.173 258.938 C 539.312 258.799 539.422 258.635 539.498 258.453 C 539.573 258.272 539.612 258.077 539.612 257.881 C 539.612 257.684 539.573 257.49 539.498 257.308 C 539.422 257.127 539.312 256.962 539.173 256.823 C 539.034 256.684 538.869 256.574 538.688 256.499 C 538.506 256.423 538.312 256.384 538.115 256.384 C 537.919 256.384 537.725 256.423 537.543 256.499 C 537.362 256.574 537.197 256.684 537.058 256.823 L 535.468 258.413 C 534.883 258.998 534.883 259.958 535.468 260.528 C 536.053 261.098 537.013 261.113 537.583 260.528 L 539.173 258.938 Z" style="fill: rgb(255, 246, 204);" transform="matrix(0.9999999999999999, 0, 0, 0.9999999999999999, 0, -2.842170943040401e-14)"/>
</svg>